HIERARCHY
ROOT root
{
	OFFSET	0	13.1	24.9
	CHANNELS 6  Xposition Yposition Zposition Xrotation Yrotation Zrotation
	JOINT spine_1
	{
		OFFSET	0	9.99999	0
		CHANNELS 3  Xrotation Yrotation Zrotation
		JOINT spine_2
		{
			OFFSET	0	112	-10
			CHANNELS 3  Xrotation Yrotation Zrotation
			JOINT spine_3
			{
				OFFSET	0	206.5	19.3
				CHANNELS 3  Xrotation Yrotation Zrotation
				JOINT spine_4
				{
					OFFSET	0	110.4	14.6
					CHANNELS 3  Xrotation Yrotation Zrotation
					JOINT neck_1
					{
						OFFSET	0	71.8	-50.3
						CHANNELS 3  Xrotation Yrotation Zrotation
						JOINT neck_2
						{
							OFFSET	0	86.2	-25.8
							CHANNELS 3  Xrotation Yrotation Zrotation
							JOINT head_ee
							{
								OFFSET	0	179.8	-8.7
								CHANNELS 3  Xrotation Yrotation Zrotation
								End Site
								{
									OFFSET	1	0	0
								}
							}
						}
					}
					JOINT left_clavicle
					{
						OFFSET	-43.2	22.4	-70.8
						CHANNELS 3  Xrotation Yrotation Zrotation
						JOINT left_shoulder
						{
							OFFSET	-93.9	-5.79999	48.7
							CHANNELS 3  Xrotation Yrotation Zrotation
							JOINT left_elbow
							{
								OFFSET	-291.4	-30.8	15.2
								CHANNELS 3  Xrotation Yrotation Zrotation
								JOINT left_lowarm_twist
								{
									OFFSET	-110.7	-3.89999	13.6
									CHANNELS 3  Xrotation Yrotation Zrotation
									JOINT left_hand
									{
										OFFSET	-110.7	-3.89999	13.6
										CHANNELS 3  Xrotation Yrotation Zrotation
										JOINT left_ee
										{
											OFFSET	-80.8	-5.10001	12.1
											CHANNELS 3  Xrotation Yrotation Zrotation
											End Site
											{
												OFFSET	1	0	0
											}
										}
									}
								}
							}
						}
					}
					JOINT right_clavicle
					{
						OFFSET	43.2	22.4	-70.8
						CHANNELS 3  Xrotation Yrotation Zrotation
						JOINT right_shoulder
						{
							OFFSET	93.9	-5.79999	48.7
							CHANNELS 3  Xrotation Yrotation Zrotation
							JOINT right_elbow
							{
								OFFSET	291.4	-30.8	15.2
								CHANNELS 3  Xrotation Yrotation Zrotation
								JOINT right_lowarm_twist
								{
									OFFSET	110.7	-3.89999	13.6
									CHANNELS 3  Xrotation Yrotation Zrotation
									JOINT right_hand
									{
										OFFSET	110.7	-3.89999	13.6
										CHANNELS 3  Xrotation Yrotation Zrotation
										JOINT right_ee
										{
											OFFSET	80.8	-5.10001	12.1
											CHANNELS 3  Xrotation Yrotation Zrotation
											End Site
											{
												OFFSET	1	0	0
											}
										}
									}
								}
							}
						}
					}
				}
			}
		}
	}
	JOINT left_hip
	{
		OFFSET	-82.8	-127.5	0.300001
		CHANNELS 3  Xrotation Yrotation Zrotation
		JOINT left_knee
		{
			OFFSET	-28.2	-396.7	2.2
			CHANNELS 3  Xrotation Yrotation Zrotation
			JOINT left_ankle
			{
				OFFSET	-11.7	-411.3	35.4
				CHANNELS 3  Xrotation Yrotation Zrotation
				JOINT left_toes
				{
					OFFSET	0	-60	-88.6
					CHANNELS 3  Xrotation Yrotation Zrotation
					JOINT left_foot_ee
					{
						OFFSET	-22.5	-16.5	-42.2
						CHANNELS 3  Xrotation Yrotation Zrotation
						End Site
						{
							OFFSET	1	0	0
						}
					}
				}
			}
		}
	}
	JOINT right_hip
	{
		OFFSET	82.8	-127.5	0.300001
		CHANNELS 3  Xrotation Yrotation Zrotation
		JOINT right_knee
		{
			OFFSET	28.2	-396.7	2.2
			CHANNELS 3  Xrotation Yrotation Zrotation
			JOINT right_ankle
			{
				OFFSET	11.7	-411.3	35.4
				CHANNELS 3  Xrotation Yrotation Zrotation
				JOINT right_toes
				{
					OFFSET	0	-60	-88.6
					CHANNELS 3  Xrotation Yrotation Zrotation
					JOINT right_foot_ee
					{
						OFFSET	22.5	-16.5	-42.2
						CHANNELS 3  Xrotation Yrotation Zrotation
						End Site
						{
							OFFSET	1	0	0
						}
					}
				}
			}
		}
	}
}
MOTION
Frames: 15
Frame Time: 0.02
1372.05 701.618 -1475.22 -10.2839115431 26.4047242623 3.80556709993 3.87319 -0.258128 0.672142 3.87339 -0.300374 0.654355 3.86984 -0.391317 0.604383 3.86945 -0.290957 0.658596 -13.2515 -4.88994 0.74112 -13.3137 -9.7697 -0.775085 -0.0 0.0 -0.0 5.77796 10.0403 11.2098 -5.77133 -26.2845 53.3164 1.92128 -43.5792 0.768115 -11.9163 -0.568856 1.41065 -2.10872 12.6772 -8.09268 -0.0 0.0 -0.0 7.68541 14.7403 -14.6295 -33.4418 21.1548 -69.3273 0.49958 13.9003 -0.0609001 60.5084 1.8194 7.15463 -0.622051 -16.3202 -2.82972 0.0 0.0 0.0 3.65409 -2.8058 6.47504 -19.4767 0.301498 2.95928 35.6231 25.8474 -4.75294 34.3737 -0.0 -0.0 -0.0 0.0 -0.0 39.6711 17.8925 -1.99979 -6.14935 -0.203902 -0.921266 -13.0139 -18.7375 -1.97727 11.991 -0.0 -0.0 0.0 0.0 0.0 
1359.22668243 703.801 -1495.78635667 -10.552652708 28.0501191933 4.16420441635 3.75443 -0.286891 0.648237 3.7546 -0.327558 0.628669 3.7509 -0.415718 0.574193 3.75059 -0.31982 0.63264 -12.6741 -4.8241 0.944341 -12.729 -9.76383 -0.51145 -0.0 0.0 -0.0 5.43703 10.2169 10.6081 -8.0978 -26.6831 54.143 1.87219 -42.8395 0.734504 -11.9414 -0.570363 1.41349 -1.82759 12.7105 -6.29123 -0.0 0.0 -0.0 7.69042 14.9546 -14.6284 -33.055 21.6198 -68.914 0.5194 14.4292 -0.0657502 60.4733 1.81625 7.15142 -0.656775 -16.3952 -2.64817 0.0 0.0 0.0 4.53859 -2.08442 5.83216 -21.8084 0.26977 3.31563 32.489 26.2055 -4.42226 33.9413 -0.0 -0.0 -0.0 0.0 -0.0 39.1378 18.0493 -2.0501 -7.38623 -0.232898 -1.10886 -12.8701 -17.7921 -1.94972 12.3751 -0.0 -0.0 0.0 0.0 0.0 
1359.5079888 703.801 -1495.95910449 -10.4779846129 27.2828232571 4.00339772165 3.75443 -0.286891 0.648237 3.7546 -0.327558 0.628669 3.7509 -0.415718 0.574193 3.75059 -0.31982 0.63264 -12.6741 -4.8241 0.944341 -12.729 -9.76383 -0.51145 -0.0 0.0 -0.0 5.43703 10.2169 10.6081 -8.0978 -26.6831 54.143 1.87219 -42.8395 0.734504 -11.9414 -0.570363 1.41349 -1.82759 12.7105 -6.29123 -0.0 0.0 -0.0 7.69042 14.9546 -14.6284 -33.055 21.6198 -68.914 0.5194 14.4292 -0.0657502 60.4733 1.81625 7.15142 -0.656775 -16.3952 -2.64817 0.0 0.0 0.0 4.53859 -2.08442 5.83216 -21.8084 0.26977 3.31563 32.489 26.2055 -4.42226 33.9413 -0.0 -0.0 -0.0 0.0 -0.0 39.1378 18.0493 -2.0501 -7.38623 -0.232898 -1.10886 -12.8701 -17.7921 -1.94972 12.3751 -0.0 -0.0 0.0 0.0 0.0 
1351.64259247 703.012 -1516.04006166 -11.0964163062 28.8451876996 4.60787665903 3.75067 -0.223451 0.467662 3.75075 -0.252757 0.452496 3.7487 -0.31604 0.410801 3.74855 -0.247196 0.455557 -12.2818 -5.1153 0.684833 -12.3381 -10.1455 -0.810901 -0.0 0.0 -0.0 5.66729 10.3534 11.0108 -9.49257 -25.3999 54.3221 1.74489 -40.8354 0.649573 -11.7849 -0.560999 1.39578 -1.7753 13.2576 -5.69971 -0.0 0.0 -0.0 7.93038 15.4177 -15.1236 -32.6971 22.1388 -68.4787 0.53331 14.7988 -0.0692597 60.2631 1.7974 7.13214 -0.68867 -15.8812 -2.23597 0.0 0.0 0.0 4.03645 -2.96546 5.56498 -22.0828 0.265083 3.35747 30.1518 26.7258 -4.16937 33.4099 -0.0 -0.0 -0.0 0.0 -0.0 39.3622 18.1925 -2.74425 -8.67148 -0.258729 -1.30439 -14.4858 -16.2136 -2.18907 11.7062 -0.0 -0.0 0.0 0.0 0.0 
1337.8772397 706.484 -1537.69366871 -11.9112080278 30.926367624 5.26337478151 3.9248 -0.0692694 0.46112 3.92492 -0.0984709 0.455778 3.92407 -0.162541 0.437048 3.92381 -0.0914785 0.457233 -10.5533 -4.83495 0.182789 -10.5847 -9.2426 -1.0716 -0.0 0.0 -0.0 5.61289 9.78733 10.9215 -11.0356 -25.6646 56.1273 1.50636 -36.7281 0.500075 -12.0196 -0.575056 1.42233 -1.52357 13.5667 -3.97158 -0.0 0.0 -0.0 8.03769 15.6058 -15.3466 -32.2675 22.9936 -67.0904 0.546405 15.1457 -0.072643 60.2007 1.79183 7.12641 -0.601963 -16.4326 -2.99988 0.0 0.0 0.0 5.60644 -1.89946 4.72815 -24.4971 0.215217 3.72457 28.7227 27.06 -4.00946 32.978 -0.0 -0.0 -0.0 0.0 -0.0 38.7252 18.4263 -2.59422 -9.7686 -0.277303 -1.47171 -13.5855 -16.1481 -2.05101 12.4932 -0.0 -0.0 0.0 0.0 0.0 
1339.09234407 706.484 -1538.34313161 -11.7777891139 29.8413714409 4.99960421415 3.9248 -0.0692694 0.46112 3.92492 -0.0984709 0.455778 3.92407 -0.162541 0.437048 3.92381 -0.0914785 0.457233 -10.5533 -4.83495 0.182789 -10.5847 -9.2426 -1.0716 -0.0 0.0 -0.0 5.61289 9.78733 10.9215 -11.0356 -25.6646 56.1273 1.50636 -36.7281 0.500075 -12.0196 -0.575056 1.42233 -1.52357 13.5667 -3.97158 -0.0 0.0 -0.0 8.03769 15.6058 -15.3466 -32.2675 22.9936 -67.0904 0.546405 15.1457 -0.072643 60.2007 1.79183 7.12641 -0.601963 -16.4326 -2.99988 0.0 0.0 0.0 5.60644 -1.89946 4.72815 -24.4971 0.215217 3.72457 28.7227 27.06 -4.00946 32.978 -0.0 -0.0 -0.0 0.0 -0.0 38.7252 18.4263 -2.59422 -9.7686 -0.277303 -1.47171 -13.5855 -16.1481 -2.05101 12.4932 -0.0 -0.0 0.0 0.0 0.0 
1323.06577719 712.306 -1560.23149946 -12.3553293678 29.5244085288 5.64684127213 3.99973 0.00796229 0.34963 3.9998 -0.0143015 0.349428 3.99967 -0.0635926 0.34389 3.99951 -0.00848391 0.349617 -9.1684 -5.12525 -1.15019 -9.18335 -8.82358 -2.33805 -0.0 0.0 -0.0 5.48385 9.18349 10.6972 -12.7825 -25.6033 57.9464 1.21615 -31.0655 0.338029 -11.9568 -0.571282 1.41523 -1.20297 13.779 -1.86771 -0.0 0.0 -0.0 8.06403 15.6013 -15.4043 -32.3159 24.1562 -65.9472 0.556384 15.4092 -0.0752724 59.2752 1.70983 7.04067 -0.556703 -16.574 -3.33605 0.0 0.0 0.0 7.35577 -1.63993 4.02985 -24.7774 0.208425 3.76706 25.0989 27.2422 -3.56923 32.0295 -0.0 -0.0 -0.0 0.0 -0.0 38.0947 18.3678 -3.09348 -10.023 -0.281152 -1.51056 -15.3059 -13.4175 -2.30258 12.1677 -0.0 -0.0 0.0 0.0 0.0 
1325.78720505 712.306 -1561.74261513 -12.144698855 27.7479210594 5.20739173456 3.99973 0.00796229 0.34963 3.9998 -0.0143015 0.349428 3.99967 -0.0635926 0.34389 3.99951 -0.00848391 0.349617 -9.1684 -5.12525 -1.15019 -9.18335 -8.82358 -2.33805 -0.0 0.0 -0.0 5.48385 9.18349 10.6972 -12.7825 -25.6033 57.9464 1.21615 -31.0655 0.338029 -11.9568 -0.571282 1.41523 -1.20297 13.779 -1.86771 -0.0 0.0 -0.0 8.06403 15.6013 -15.4043 -32.3159 24.1562 -65.9472 0.556384 15.4092 -0.0752724 59.2752 1.70983 7.04067 -0.556703 -16.574 -3.33605 0.0 0.0 0.0 7.35577 -1.63993 4.02985 -24.7774 0.208425 3.76706 25.0989 27.2422 -3.56923 32.0295 -0.0 -0.0 -0.0 0.0 -0.0 38.0947 18.3678 -3.09348 -10.023 -0.281152 -1.51056 -15.3059 -13.4175 -2.30258 12.1677 -0.0 -0.0 0.0 0.0 0.0 
1314.31934153 713.504 -1576.97926966 -12.8711674479 27.2830344753 5.51601882244 4.17494 -0.0389296 0.313952 4.17499 -0.0588281 0.310839 4.17464 -0.101298 0.2997 4.17451 -0.0526947 0.311937 -8.02423 -5.85879 -2.65998 -8.01699 -9.05883 -3.91066 -0.0 0.0 -0.0 5.52147 9.0874 10.7647 -14.5964 -25.3714 59.4875 1.03421 -27.1261 0.249501 -11.915 -0.568781 1.41051 -0.969235 13.9691 -0.324161 -0.0 0.0 -0.0 8.10193 15.3389 -15.5017 -32.3991 24.997 -64.6444 0.565461 15.6484 -0.0777026 58.5339 1.64516 6.97105 -0.490188 -16.1539 -3.57065 0.0 0.0 0.0 8.00819 -1.72177 3.68865 -26.2233 0.170096 3.98564 22.3887 26.2711 -3.20285 31.3803 -0.0 -0.0 -0.0 0.0 -0.0 37.862 18.6432 -2.88688 -10.2276 -0.284122 -1.54181 -16.4619 -10.5266 -2.47154 11.9753 -0.0 -0.0 0.0 0.0 0.0 
1296.13681737 720.981 -1608.30595678 -14.3464799755 28.0439290897 7.1950949674 4.39141 0.0544553 0.31592 4.39147 0.0342422 0.318745 4.39162 -0.0090035 0.320452 4.39148 0.0417187 0.317853 -7.13581 -6.57444 -4.36442 -7.09164 -9.08059 -5.69485 -0.0 0.0 -0.0 5.45874 10.1671 10.6466 -15.7933 -23.535 62.2083 0.702605 -19.1905 0.118778 -12.4435 -0.600715 1.47011 -0.938842 14.0773 -0.0873844 -0.0 0.0 -0.0 7.59214 13.9463 -14.4705 -28.9152 27.0455 -62.1512 0.693555 18.9611 -0.11582 57.3447 1.54332 6.85764 -0.364484 -14.2564 -3.56887 0.0 0.0 0.0 12.8119 -8.88424 3.1182 -28.8805 0.0853154 4.38458 12.0761 23.6572 -1.77156 29.6399 -0.0 -0.0 -0.0 0.0 -0.0 36.807 18.2568 -4.15792 -9.33607 -0.270363 -1.40571 -15.9549 -7.01501 -2.39445 12.2973 -0.0 -0.0 0.0 0.0 0.0 
1272.78442599 726.546 -1647.76576703 -14.1988355981 29.9189512384 8.45747535772 4.48111 0.225695 0.160464 4.4811 0.215027 0.174501 4.48176 0.189882 0.201574 4.48177 0.219334 0.169056 -6.18507 -5.94736 -5.72719 -6.0995 -6.79453 -6.8903 -0.0 0.0 -0.0 5.08959 10.4283 9.99945 -19.5059 -22.9988 64.1572 0.433539 -12.1211 0.0460302 -11.9091 -0.568424 1.40984 -1.17588 17.0489 -0.240746 -0.0 0.0 -0.0 7.56711 14.2719 -14.3991 -25.4774 29.4985 -62.0693 0.67737 18.5492 -0.110617 55.9626 1.42796 6.72325 -0.525371 -10.1048 -0.819101 0.0 0.0 0.0 18.3582 -6.62562 -0.246734 -37.4193 -0.310804 5.6336 3.04667 21.2237 -0.45395 29.4004 -0.0 -0.0 -0.0 0.0 -0.0 34.5044 17.0233 -5.98432 -10.3997 -0.286535 -1.56812 -11.3631 -3.40184 -1.7043 14.5966 -0.0 -0.0 0.0 0.0 0.0 
1256.47902698 728.599 -1670.25808966 -13.4528487443 30.0827763432 8.67345785913 4.57675 0.48783 0.178256 4.57664 0.475499 0.208937 4.57846 0.443909 0.269628 4.57868 0.480921 0.196136 -6.17774 -6.43025 -7.23712 -6.04004 -6.57282 -8.49736 -0.0 0.0 -0.0 4.07144 13.3223 8.28646 -20.8884 -22.8888 65.0278 0.457075 -12.7581 0.0511001 -11.8817 -0.566782 1.40674 -1.07488 17.0502 0.374881 -0.0 0.0 -0.0 7.57347 15.0067 -14.3719 -23.4767 30.7759 -60.753 0.750353 20.3902 -0.134946 55.8801 1.42118 6.71515 -0.376962 -9.21351 -1.39559 0.0 0.0 0.0 20.5206 -9.05352 -0.0655949 -44.4313 -0.772477 6.60718 -1.70499 19.7914 0.25545 29.5051 -0.0 -0.0 -0.0 0.0 -0.0 32.4244 15.844 -6.74654 -10.7837 -0.291631 -1.6268 -9.9882 -1.74679 -1.50006 15.3615 -0.0 -0.0 0.0 0.0 0.0 
1236.35303389 732.812 -1687.24153921 -12.0647223151 31.6211969553 8.62377882982 4.42732 0.354301 0.115665 4.42726 0.346223 0.137976 4.42813 0.324602 0.183144 4.42825 0.349452 0.12958 -6.94146 -6.93224 -9.35981 -6.70904 -6.08652 -10.734 -0.0 0.0 -0.0 3.50157 14.9952 7.38688 -22.4973 -22.4449 65.6448 0.385603 -10.8144 0.0364992 -11.9908 -0.573323 1.41907 -0.38991 19.3794 5.49092 -0.0 0.0 -0.0 7.69053 14.5928 -14.6487 -21.7206 31.4056 -60.1349 0.776826 21.0475 -0.144312 54.9308 1.34398 6.62115 -0.239709 -5.09256 -0.556147 0.0 0.0 0.0 26.2199 -8.27676 -1.03682 -55.8081 -1.76475 8.04768 -6.92286 14.5311 1.03281 29.2938 -0.0 -0.0 -0.0 0.0 -0.0 29.2245 14.119 -7.28531 -11.4634 -0.299689 -1.7308 -5.5979 -0.768678 -0.836628 17.0319 -0.0 -0.0 0.0 0.0 0.0 
1212.96538311 731.269 -1705.39047437 -11.1683372256 33.0626496711 8.33656609323 4.34003 0.283295 0.317001 4.34004 0.26255 0.334385 4.34156 0.214801 0.366887 4.34148 0.270048 0.328359 -6.8602 -7.27193 -10.6405 -6.55761 -5.76192 -12.0771 -0.0 0.0 -0.0 2.84108 16.95 6.40112 -24.2435 -22.0413 65.7966 0.346632 -9.74352 0.0295448 -12.9415 -0.631312 1.52601 -0.340747 20.8332 6.36159 -0.0 0.0 -0.0 7.6928 14.1075 -14.6797 -21.3689 31.8021 -58.9955 0.88186 23.5977 -0.184215 54.5151 1.31067 6.57958 -0.018565 -2.93103 -1.10728 0.0 0.0 0.0 31.1025 -8.4539 -2.72312 -62.0847 -2.42925 8.75103 -11.7985 7.62117 1.76324 28.8145 -0.0 -0.0 -0.0 0.0 -0.0 27.0271 15.1556 -7.66496 -12.6566 -0.310847 -1.91353 -2.28414 1.05116 -0.340717 17.0865 -0.0 -0.0 0.0 0.0 0.0 
1205.39049934 732.046 -1719.98818475 -11.5414548841 33.1140543887 8.71104372003 4.71378 0.326566 0.436165 4.71384 0.29815 0.456061 4.71616 0.236796 0.490726 4.71596 0.311324 0.447171 -9.51647 -6.2603 -8.50417 -9.32825 -5.93767 -9.80902 -0.0 0.0 -0.0 2.03884 18.8521 5.2628 -25.7194 -21.5376 65.3056 0.37895 -10.6321 0.0352612 -12.5322 -0.606127 1.48009 -0.282211 23.0085 7.55243 -0.0 0.0 -0.0 7.62601 15.2168 -14.4737 -20.7351 32.2723 -59.1228 0.9361 24.8776 -0.206484 53.9995 1.26978 6.52771 0.0596191 -2.13884 -1.29447 0.0 0.0 0.0 35.2666 -11.1656 -1.84691 -66.2005 -2.90539 9.17142 -19.4052 5.28008 2.92187 26.9617 -0.0 -0.0 -0.0 0.0 -0.0 25.7114 14.2606 -8.03947 -12.5153 -0.309725 -1.89188 3.7008 -1.26923 0.540452 17.634 -0.0 -0.0 0.0 0.0 0.0 
